<svg width="21" height="20" viewBox="0 0 21 20" fill="none" xmlns="http://www.w3.org/2000/svg">
<path fill-rule="evenodd" clip-rule="evenodd" d="M10.1429 0.833374C5.08025 0.833374 0.976196 4.93743 0.976196 10C0.976196 15.0627 5.08025 19.1667 10.1429 19.1667C15.2055 19.1667 19.3095 15.0627 19.3095 10C19.3095 4.93743 15.2055 0.833374 10.1429 0.833374ZM14.4821 8.0893C14.8076 7.76386 14.8076 7.23622 14.4821 6.91079C14.1567 6.58535 13.629 6.58535 13.3036 6.91079L8.89286 11.3215L6.98212 9.41079C6.65668 9.08535 6.12904 9.08535 5.80361 9.41079C5.47817 9.73622 5.47817 10.2639 5.80361 10.5893L8.30361 13.0893C8.62904 13.4147 9.15668 13.4147 9.48212 13.0893L14.4821 8.0893Z" fill="#16CB3E"/>
</svg>
